<?xml version="1.0" standalone="no"?>
<!DOCTYPE svg PUBLIC "-//W3C//DTD SVG 20010904//EN"
 "http://www.w3.org/TR/2001/REC-SVG-20010904/DTD/svg10.dtd">
<svg version="1.0" xmlns="http://www.w3.org/2000/svg"
 width="730.000000pt" height="730.000000pt" viewBox="0 0 730.000000 730.000000"
 preserveAspectRatio="xMidYMid meet">
<metadata>
Created by potrace 1.11, written by Peter Selinger 2001-2013
</metadata>
<g transform="translate(0.000000,730.000000) scale(0.100000,-0.100000)"
fill="#000000" stroke="none">
<path d="M3375 7189 c-1302 -91 -2466 -928 -2983 -2144 -169 -398 -256 -778
-284 -1236 -43 -735 146 -1480 538 -2111 391 -631 1003 -1145 1686 -1417 834
-332 1772 -332 2606 0 860 342 1574 1043 1940 1904 169 397 256 776 284 1234
18 307 -10 667 -77 975 -227 1050 -916 1945 -1865 2426 -575 291 -1193 414
-1845 369z m-385 -1656 l0 -127 63 62 63 62 64 0 65 -1 -82 -76 -83 -75 86
-94 86 -94 -65 0 -65 0 -66 68 -66 67 0 -67 0 -68 -55 0 -55 0 0 235 0 235 55
0 55 0 0 -127z m2380 82 l0 -45 -55 0 -55 0 0 45 0 45 55 0 55 0 0 -45z m330
10 c0 -33 -2 -35 -34 -35 -50 0 -66 -9 -66 -36 0 -22 4 -24 45 -24 l45 0 0
-40 0 -40 -45 0 -45 0 0 -130 0 -130 -60 0 -60 0 0 130 0 130 -25 0 c-22 0
-25 4 -25 40 0 36 3 40 25 40 19 0 25 5 25 21 0 33 29 85 53 97 12 6 55 11 95
11 l72 1 0 -35z m-3900 -30 l0 -45 -75 0 -75 0 0 -180 0 -180 -60 0 -60 0 0
180 0 180 -75 0 -75 0 0 45 0 45 210 0 210 0 0 -45z m1610 -26 c24 -39 47 -72
51 -75 4 -2 29 30 55 71 l47 75 64 0 c35 0 63 -2 63 -5 0 -3 -36 -61 -80 -129
l-80 -123 0 -96 0 -97 -65 0 -65 0 0 98 0 97 -85 128 -85 127 68 0 67 0 45
-71z m1580 -109 l0 -180 100 0 100 0 0 -45 0 -45 -165 0 -165 0 0 225 0 225
65 0 65 0 0 -180z m870 120 l0 -50 60 0 60 0 0 -40 0 -40 -60 0 -60 0 0 -78
c0 -47 5 -83 12 -90 7 -7 31 -12 55 -12 l43 0 0 -40 0 -40 -79 0 c-70 0 -83 3
-108 24 -27 23 -28 28 -31 130 -4 104 -4 106 -28 106 -21 0 -24 4 -24 40 0 36
3 40 25 40 23 0 25 3 25 50 l0 50 55 0 55 0 0 -50z m-3820 -89 l0 -49 -50 1
c-39 2 -54 -3 -72 -21 -20 -19 -23 -34 -26 -127 l-4 -105 -54 0 -54 0 0 170 0
170 55 0 c49 0 55 -2 55 -21 0 -20 1 -20 31 5 23 19 42 26 75 26 l44 0 0 -49z
m295 35 c62 -26 75 -63 75 -208 l0 -128 -55 0 c-49 0 -55 2 -55 21 0 20 -1 20
-31 -5 -63 -54 -177 -25 -198 50 -27 97 34 154 164 154 69 0 71 1 55 30 -18
34 -101 36 -184 4 -15 -6 -17 -1 -14 37 3 40 6 45 33 50 57 12 175 9 210 -5z
m429 4 c23 -8 26 -15 26 -55 0 -25 -2 -45 -4 -45 -2 0 -21 7 -41 16 -79 33
-140 -4 -140 -86 0 -82 61 -119 140 -86 20 9 39 16 41 16 2 0 4 -20 4 -45 0
-40 -3 -47 -27 -56 -16 -6 -60 -9 -99 -7 -59 3 -77 8 -107 31 -60 45 -85 116
-67 191 19 86 88 136 187 136 34 0 73 -4 87 -10z m1200 -24 c46 -35 66 -79 66
-146 0 -104 -58 -170 -155 -178 -102 -8 -165 20 -202 92 -21 40 -21 132 -1
171 38 71 86 96 184 92 60 -2 76 -6 108 -31z m846 -15 l0 -49 -50 1 c-39 2
-54 -3 -72 -21 -20 -19 -23 -34 -26 -127 l-4 -105 -54 0 -54 0 0 170 0 170 55
0 c49 0 55 -2 55 -21 0 -20 1 -20 31 5 23 19 42 26 75 26 l44 0 0 -49z m-590
-79 c0 -105 2 -121 20 -137 13 -12 27 -15 45 -11 39 10 55 58 55 171 l0 95 55
0 55 0 0 -170 0 -170 -55 0 c-48 0 -55 2 -55 20 0 18 -2 18 -36 -5 -53 -36
-113 -34 -156 4 l-33 29 -3 146 -3 146 55 0 56 0 0 -118z m1150 -52 l0 -170
-55 0 -55 0 0 170 0 170 55 0 55 0 0 -170z m-1465 -984 c87 -24 231 -97 302
-156 114 -93 197 -214 250 -365 25 -74 27 -91 27 -235 0 -144 -2 -161 -27
-235 -75 -213 -206 -363 -402 -460 -133 -66 -195 -80 -360 -80 -165 0 -227 14
-360 80 -196 97 -327 247 -402 460 -25 74 -27 91 -27 235 0 144 2 161 27 235
97 278 306 464 597 531 74 18 296 12 375 -10z m-604 -2495 c21 -21 29 -39 29
-64 0 -38 -18 -66 -94 -144 l-50 -53 72 0 c57 0 72 -3 72 -15 0 -12 -18 -15
-100 -15 -90 0 -100 2 -100 18 0 10 16 34 36 53 110 104 139 172 89 205 -25
17 -49 14 -112 -12 -8 -4 -13 2 -13 15 0 27 30 40 93 40 41 1 53 -4 78 -28z
m260 19 c35 -19 53 -70 53 -150 0 -113 -31 -160 -106 -160 -72 0 -108 54 -108
160 0 77 15 118 52 144 26 18 80 21 109 6z m618 -1 c23 -8 31 -17 31 -34 l0
-23 -49 21 c-44 18 -55 19 -90 8 -48 -14 -72 -45 -78 -104 -11 -94 50 -157
138 -142 l39 7 0 49 0 49 -35 0 c-24 0 -35 5 -35 15 0 12 13 15 60 15 l60 0 0
-71 0 -70 -35 -15 c-50 -21 -133 -18 -172 6 -51 31 -68 65 -68 140 0 73 18
110 70 141 34 21 114 25 164 8z m-449 -60 l0 -61 65 61 c52 49 72 61 98 61 32
0 31 -1 -46 -72 l-79 -71 84 -84 c79 -80 81 -83 53 -83 -23 0 -45 15 -102 72
l-73 72 0 -72 c0 -70 -1 -72 -25 -72 l-25 0 0 155 0 155 25 0 c24 0 25 -3 25
-61z"/>
<path d="M2210 5343 c-35 -14 -41 -66 -10 -83 29 -16 69 -1 85 31 25 47 20 59
-22 58 -21 0 -45 -3 -53 -6z"/>
<path d="M3813 5450 c-54 -22 -52 -159 3 -180 36 -14 42 -13 69 15 20 19 25
34 25 75 0 41 -5 56 -25 75 -26 27 -37 29 -72 15z"/>
<path d="M3484 1872 c-23 -15 -38 -59 -38 -117 -1 -99 34 -152 83 -126 54 29
55 212 1 241 -22 12 -31 12 -46 2z"/>
</g>
</svg>
